PathFileType	4	(X/Y/Z)	C:\Users\Basilio\Documents\Thesis Gigler\squatting_fais\c3dfiles\019\SLS_back_pre5\markers_experimental.trc
DataRate	CameraRate	NumFrames	NumMarkers	Units	OrigDataRate	OrigDataStartFrame	OrigNumFrames
200.000000	200.000000	4	59	mm	200.000000	0	2073
Frame#	Time	FHD			LBHD			RBHD			C7			T10			CLAV			LSHO			LUUPA			LMUPA			LDUPA			LLEP			LMEP			LRAD			LUL			LRFIN			RSHO			RUPA1			RMUPA			RDUPA			RLEP			RMEP			RRAD			RUL			RUFIN			LASI			RASI			USACR			LSACR			RSACR			LTHI1			LTHI2			LTHI3			LTHI4			LLFC			LTIB1			LTIB2			LTIB3			LTIB4			LLMAL			LMMAL			LHEE			LMT1			LMT2			LMT5			RTHI			RTHI2			RTHI3			RTHI4			RLFC			RTIB1			RTIB2			RTIB3			RTIB4			RLMAL			RMMAL			RHEE			RMT1			RMT2			RMT5			
		X1	Y1	Z1	X2	Y2	Z2	X3	Y3	Z3	X4	Y4	Z4	X5	Y5	Z5	X6	Y6	Z6	X7	Y7	Z7	X8	Y8	Z8	X9	Y9	Z9	X10	Y10	Z10	X11	Y11	Z11	X12	Y12	Z12	X13	Y13	Z13	X14	Y14	Z14	X15	Y15	Z15	X16	Y16	Z16	X17	Y17	Z17	X18	Y18	Z18	X19	Y19	Z19	X20	Y20	Z20	X21	Y21	Z21	X22	Y22	Z22	X23	Y23	Z23	X24	Y24	Z24	X25	Y25	Z25	X26	Y26	Z26	X27	Y27	Z27	X28	Y28	Z28	X29	Y29	Z29	X30	Y30	Z30	X31	Y31	Z31	X32	Y32	Z32	X33	Y33	Z33	X34	Y34	Z34	X35	Y35	Z35	X36	Y36	Z36	X37	Y37	Z37	X38	Y38	Z38	X39	Y39	Z39	X40	Y40	Z40	X41	Y41	Z41	X42	Y42	Z42	X43	Y43	Z43	X44	Y44	Z44	X45	Y45	Z45	X46	Y46	Z46	X47	Y47	Z47	X48	Y48	Z48	X49	Y49	Z49	X50	Y50	Z50	X51	Y51	Z51	X52	Y52	Z52	X53	Y53	Z53	X54	Y54	Z54	X55	Y55	Z55	X56	Y56	Z56	X57	Y57	Z57	X58	Y58	Z58	X59	Y59	Z59	

1	0	-72.59587860107423	1635.494750976563	-914.312683105469	-194.1868591308594	1672.20947265625	-1066.275024414063	-205.6958618164063	1678.046264648438	-926.8006591796877	-322.5545654296876	1518.21484375	-976.653991699219	-410.8614501953126	1226.10107421875	-945.7496337890627	-209.1504821777344	1431.086059570313	-981.1553955078127	-272.5363464355469	1470.962646484375	-1136.755737304688	-303.7693786621094	1302.19384765625	-1193.99951171875	-276.8398437500001	1269.332885742188	-1169.403198242188	-312.0078430175782	1236.248779296875	-1206.010620117188	-360.6862792968751	1164.573608398438	-1213.846435546875	-384.733367919922	1152.173095703125	-1156.061767578125	-241.7190551757813	936.7050781250002	-1212.18017578125	-301.4410095214844	927.5605468750002	-1228.529052734375	-221.6655273437501	868.0977783203127	-1237.894287109375	-240.9892730712891	1488.067626953125	-832.5610351562502	-318.8942260742188	1330.9755859375	-719.9119873046876	-284.7616882324219	1298.786376953125	-731.9151611328126	-325.9272766113282	1263.34423828125	-707.5398559570314	-333.8391723632813	1190.712768554688	-696.4832763671876	-374.5641784667969	1188.215209960938	-738.4250488281251	-251.7052917480469	952.4797363281252	-697.8352661132814	-304.0826721191407	947.8566894531252	-654.4393920898439	-231.9224548339844	881.4477539062502	-658.2342529296876	-270.0587463378907	998.466491699219	-1050.829956054688	-251.5577239990235	1010.343688964844	-840.998474121094	-416.8107299804689	1090.5693359375	-937.3146972656252	-427.4486694335939	1056.568603515625	-959.8731079101565	-420.8506164550782	1062.509399414063	-902.775329589844	-337.0091857910157	745.4403686523439	-1115.188110351563	-292.7716369628907	671.7608032226564	-1117.019897460938	-247.1246948242188	680.6256103515626	-1104.153076171875	-313.4763488769532	616.0715942382814	-1101.417724609375	-310.0619812011719	520.3710937500001	-1089.561401367188	-273.0563659667969	377.2853393554688	-1057.0537109375	-330.9061584472657	339.2675476074219	-1111.564819335938	-294.6547241210938	332.3422546386719	-1087.346923828125	-306.3516235351563	253.2608184814454	-1052.795043945313	-386.9298706054689	132.3438873291016	-1073.90380859375	-370.7643127441407	138.851058959961	-997.921569824219	-457.5973205566407	107.4655075073242	-1027.123413085938	-246.2550506591797	56.88254928588869	-1004.309387207031	-246.5964660644532	53.05892562866212	-1046.666748046875	-291.0818786621094	38.47907638549805	-1100.703491210938	-294.6625976562501	825.5391235351565	-740.4793090820314	-258.8754272460938	771.9022216796877	-747.7584838867189	-234.5428466796876	765.6284179687501	-770.282897949219	-286.0383911132813	692.1788330078126	-732.8504638671876	-325.6298522949219	531.0463256835939	-743.2567138671876	-302.9738769531251	343.6119384765626	-781.315368652344	-356.0183410644532	275.7831726074219	-710.6367187500001	-325.7340393066407	267.0626831054688	-745.2707519531251	-341.0656127929688	221.7103118896485	-779.7898559570315	-400.9378356933595	142.80419921875	-718.6096801757814	-389.0765075683595	143.0567169189453	-797.0826416015627	-469.507049560547	112.19677734375	-761.3814086914064	-270.3320312500001	64.94565582275392	-794.4963989257815	-260.9001464843751	64.96047210693361	-750.9886474609376	-302.7298583984376	57.35889816284181	-694.5244750976564	
2	0.005	-73.02223205566408	1635.883178710938	-912.5744628906252	-194.6351165771485	1672.44189453125	-1064.5830078125	-206.2102966308594	1678.662963867188	-925.0278320312502	-322.6178283691407	1518.195678710938	-975.1326904296877	-410.7921142578126	1226.033203125	-944.4690551757815	-209.3123931884766	1431.22412109375	-979.5930786132815	-272.5728149414063	1471.173461914063	-1135.202270507813	-303.4452819824219	1302.366455078125	-1192.564453125	-276.5278930664063	1269.575927734375	-1167.836547851563	-311.7276611328126	1236.45068359375	-1204.693603515625	-360.4621582031251	1164.793334960938	-1212.606323242188	-384.3411865234376	1152.235595703125	-1154.853515625	-240.4644775390626	937.2817382812502	-1210.53369140625	-300.2065124511719	927.8505859375002	-1227.103881835938	-220.0903930664063	868.701599121094	-1236.184448242188	-241.2127532958985	1487.884033203125	-830.9265136718752	-319.0775451660157	1330.702392578125	-718.5726318359376	-284.8442993164063	1298.436279296875	-730.3944702148439	-327.8910827636719	1261.77197265625	-708.0339965820314	-333.9315185546876	1190.29345703125	-695.3078002929689	-374.5083007812501	1187.823852539063	-737.3597412109376	-251.1418457031251	952.3688964843752	-697.1209106445314	-303.6446533203126	947.5195312500002	-653.7695922851564	-231.6867370605469	881.2025146484377	-657.7634887695314	-269.9222412109376	998.5437011718752	-1049.786499023438	-251.2967071533204	1010.217346191406	-839.994812011719	-416.7575988769532	1090.526489257813	-936.157165527344	-427.4094543457032	1056.545532226563	-958.7021484375002	-420.9742126464845	1062.483032226563	-901.666442871094	-336.9775390625001	745.5821533203126	-1114.409301757813	-292.6926269531251	671.8250732421876	-1116.323852539063	-247.0572357177735	680.6678466796876	-1103.341552734375	-313.4558410644532	616.1691284179689	-1100.78662109375	-310.0889892578126	520.4786987304689	-1089.039428710938	-273.0878906250001	377.3382568359376	-1056.639770507813	-330.8261718750001	339.4200134277344	-1111.216186523438	-294.6910095214844	332.4834289550782	-1087.09375	-306.3763122558594	253.3314666748047	-1052.53125	-386.9117736816407	132.3964233398438	-1073.848022460938	-370.7553710937501	138.8390502929688	-997.8139648437502	-457.5981445312501	107.4657974243164	-1027.122680664063	-246.2532806396485	56.88143920898439	-1004.314392089844	-246.5721130371094	53.0780601501465	-1046.697143554688	-291.1012573242188	38.49826049804688	-1100.664428710938	-294.6328430175782	825.2416992187502	-739.5696411132814	-258.9187011718751	771.5703125000002	-746.9578857421876	-234.5259399414063	765.6362304687501	-770.9417724609377	-285.2239379882813	692.0038452148439	-732.9196166992189	-325.7501525878907	530.7452392578126	-742.7299194335939	-302.9920043945313	343.4881896972657	-781.0419921875002	-356.1173095703126	275.5089111328126	-710.3929443359376	-325.8391418457032	266.7860717773438	-744.9570922851564	-341.0576477050782	221.5070495605469	-779.525817871094	-400.9762268066407	142.5198974609375	-718.5328979492189	-389.1267700195314	142.9055786132813	-796.9800415039065	-469.5487365722657	112.2318649291992	-761.3217163085939	-270.2935485839844	64.69195556640626	-794.3275146484377	-260.8695678710938	64.61853790283205	-750.8665161132814	-302.8713378906251	57.12324142456056	-694.3738403320314	
3	0.01	-73.28321838378908	1636.222778320313	-910.8313598632815	-195.1725158691407	1672.678955078125	-1062.9052734375	-206.5738983154297	1678.842041015625	-923.3223266601565	-322.8284912109376	1518.093139648438	-973.5351562500002	-410.734100341797	1225.985595703125	-943.1701660156252	-209.3492126464844	1431.2587890625	-978.0420532226565	-272.4966735839844	1471.361938476563	-1133.607299804688	-303.1590576171876	1302.552124023438	-1191.09912109375	-276.2723693847657	1269.80908203125	-1166.421264648438	-311.2992858886719	1236.606811523438	-1203.227905273438	-359.9583435058594	1164.907836914063	-1211.308471679688	-384.0379943847657	1152.325317382813	-1153.624877929688	-239.2050933837891	937.8076782226565	-1208.857299804688	-298.8357238769532	928.164001464844	-1225.67724609375	-218.4822540283204	869.2908325195315	-1234.50390625	-241.4527282714844	1487.817993164063	-829.378845214844	-319.1572875976563	1330.371826171875	-717.2220458984376	-284.9967956542969	1298.142211914063	-729.0578613281251	-326.1880798339844	1262.732421875	-705.0576171875001	-333.8007507324219	1190.060913085938	-694.0969238281251	-374.6017150878907	1187.468383789063	-736.2015991210939	-250.7564239501954	952.1248168945315	-696.3101196289064	-303.3818664550782	947.0078735351565	-653.0220947265626	-231.053451538086	880.9043579101565	-657.0794677734376	-269.8466796875001	998.5966796875002	-1048.80322265625	-251.2288055419922	1010.02197265625	-838.9815063476565	-416.559295654297	1090.47412109375	-934.9797973632815	-426.7219543457032	1056.297241210938	-957.6419677734377	-420.9309997558595	1062.385498046875	-900.5661621093752	-336.8567810058594	745.7293090820314	-1113.6513671875	-292.6288452148438	671.9520874023439	-1115.661499023438	-247.084701538086	680.7925415039064	-1102.718017578125	-313.5222778320313	616.2427368164064	-1100.139282226563	-310.0880126953126	520.5407714843751	-1088.509521484375	-273.1228027343751	377.3961791992188	-1056.25927734375	-330.8268737792969	339.5913391113282	-1110.92041015625	-294.6788940429688	332.5609741210938	-1086.8046875	-306.3912963867188	253.3819732666016	-1052.265380859375	-386.9845275878907	132.4320831298828	-1073.768920898438	-370.7536315917969	138.7905578613282	-997.758239746094	-457.5694580078126	107.4528732299805	-1027.126220703125	-246.2533874511719	56.88171386718751	-1004.314514160156	-246.5895996093751	53.06556701660158	-1046.7041015625	-291.0790405273438	38.53879547119141	-1100.6591796875	-294.4981079101563	825.0559082031252	-738.6328125000001	-258.8456420898438	771.3460693359377	-746.1472167968751	-234.4665985107422	765.2681884765626	-770.0128173828127	-286.7624816894532	688.4111328125001	-729.3308715820314	-325.9252014160157	530.4798583984376	-742.1755371093751	-302.9819335937501	343.2944030761719	-780.6060791015627	-356.0896606445313	275.2710266113282	-710.0369262695314	-325.8821105957032	266.5507202148438	-744.7117309570314	-340.9934387207032	221.3280487060547	-779.2310180664065	-400.8606872558595	142.4549865722657	-718.3239746093751	-389.0136108398439	142.7497100830078	-796.8345947265627	-469.4945373535157	112.2488098144532	-761.3031005859376	-270.4961547851563	64.61898040771486	-794.248474121094	-260.8360900878907	64.32034301757814	-750.6469726562501	-302.8035278320313	56.85315704345705	-694.2114257812501	
4	0.015	-73.69893646240236	1636.6171875	-909.0213012695315	-195.4776763916016	1672.85791015625	-1061.201171875	-207.0659332275391	1678.896606445313	-921.6203613281252	-322.8859558105469	1518.0400390625	-971.9310302734377	-410.6587219238282	1225.912475585938	-941.8135986328127	-209.4485473632813	1431.319702148438	-976.4062500000002	-272.4962768554688	1471.530883789063	-1132.031860351563	-302.8196105957032	1302.73828125	-1189.591430664063	-276.0378417968751	1270.029663085938	-1164.972290039063	-310.8658142089844	1236.793579101563	-1201.781494140625	-359.3195190429688	1164.96826171875	-1209.9716796875	-383.5264282226563	1152.345825195313	-1152.354736328125	-238.0373077392579	938.369079589844	-1207.264404296875	-297.5132446289063	928.4398193359377	-1224.196533203125	-216.960678100586	869.876892089844	-1232.801513671875	-241.6904449462891	1487.622802734375	-827.7221679687502	-319.3937683105469	1330.041015625	-715.8430175781251	-285.4257202148438	1297.989379882813	-728.0935058593751	-326.3370361328126	1262.281127929688	-703.7175292968751	-333.9618835449219	1189.57958984375	-692.9152832031251	-374.6839294433594	1187.100341796875	-735.0208129882814	-250.3641815185547	951.8701782226565	-695.5252685546876	-302.9892578125001	946.6749267578127	-652.2609863281251	-230.8796081542969	880.646911621094	-656.4708251953126	-269.7745361328126	998.6951293945315	-1047.81298828125	-251.0773010253907	1009.835083007813	-837.9859619140627	-416.476287841797	1090.361450195313	-933.7823486328127	-426.7463684082032	1056.299926757813	-956.479187011719	-420.3999633789064	1062.145263671875	-899.3235473632815	-336.7364196777344	745.8005371093751	-1112.834350585938	-292.6093139648438	672.0192260742189	-1114.88671875	-247.0079345703126	680.8517456054689	-1101.9619140625	-313.4387207031251	616.3419189453126	-1099.4990234375	-310.0699462890626	520.6293945312501	-1087.932250976563	-273.0839843750001	377.4365539550782	-1055.839721679688	-330.8407287597657	339.6791687011719	-1110.554443359375	-294.7050170898438	332.6077880859376	-1086.426391601563	-306.4562072753907	253.3780212402344	-1052.071533203125	-386.910125732422	132.4986724853516	-1073.72802734375	-370.7421569824219	138.767578125	-997.713073730469	-457.5277099609376	107.4423446655274	-1027.066040039063	-246.2886810302735	56.87202835083009	-1004.268127441406	-246.5759429931641	53.07154464721681	-1046.699462890625	-291.0614929199219	38.57136535644532	-1100.677368164063	-294.4700317382813	824.7529296875002	-737.6768798828126	-258.8333129882813	771.0747070312502	-745.3547363281251	-234.3523101806641	764.9068603515626	-768.6569824218752	-285.6860961914063	691.3933715820314	-731.0932006835939	-326.1115417480469	530.1760253906251	-741.5942993164064	-303.0543518066407	343.0861511230469	-780.3098144531252	-356.1661071777344	274.9887695312501	-709.7214965820314	-325.9086914062501	266.3126220703126	-744.3565673828126	-340.9851074218751	221.0558013916016	-778.8693847656252	-400.7489624023439	142.1471557617188	-718.2058715820314	-388.8973999023439	142.5106048583985	-796.6027832031252	-469.255340576172	112.2584915161133	-761.2114868164064	-270.3902282714844	64.26495361328126	-794.0505981445315	-260.7957153320313	63.93885803222658	-750.6424560546876	-302.7640380859376	56.58498382568361	-694.0233154296876	
